<svg id="Layer_1" xmlns="http://www.w3.org/2000/svg" viewBox="0 0 50 50"><style>.st0{fill:#010101}</style><g id="XMLID_4_"><circle id="XMLID_47_" class="st0" cx="9.4" cy="12.1" r="4.6"/><circle id="XMLID_46_" class="st0" cx="9.4" cy="24.8" r="4.6"/><circle id="XMLID_45_" class="st0" cx="9.4" cy="37.9" r="4.6"/><g id="XMLID_5_"><path id="XMLID_44_" class="st0" d="M19.3 15.2h25c.2 0 .4-.1.6-.2.2-.2.2-.4.2-.6v-4.3c0-.5-.4-.8-.8-.8h-25c-.5 0-.8.4-.8.8v4.3c0 .4.4.8.8.8z"/><path id="XMLID_43_" class="st0" d="M44.4 21.8h-25c-.5 0-.8.4-.8.8v4.3c0 .5.4.8.8.8h25c.2 0 .4-.1.6-.2.2-.2.2-.4.2-.6v-4.3c0-.4-.4-.8-.8-.8z"/><path id="XMLID_6_" class="st0" d="M44.4 34.9h-25c-.5 0-.8.4-.8.8V40c0 .5.4.8.8.8h25c.2 0 .4-.1.6-.2.2-.2.2-.4.2-.6v-4.3c0-.5-.4-.8-.8-.8z"/></g></g></svg>