<svg id="Layer_1" xmlns="http://www.w3.org/2000/svg" viewBox="0 0 50 50"><style>.st0{fill:#010101}</style><path id="XMLID_4_" class="st0" d="M47.5 10c-.7-2-3-3-5-2.3s-3 3-2.3 5c.2.6.6 1.1 1.1 1.5l-5.5 10.6c-.6-.1-1.1.1-1.6.2-.5.2-1 .5-1.4.9l-12.2-5c.1-.7.1-1.3-.2-2-.7-2-3-3-5-2.3-2 .7-3 3-2.3 5 .2.4.4.8.6 1.1L6.6 34.8c-.6-.1-1.2 0-1.8.2-2 .7-3 3-2.3 5 .7 2 3 3 5 2.3 2-.7 3-3 2.3-5-.2-.5-.5-1-.8-1.3l7.1-11.9c.7.2 1.4.1 2.1-.2.5-.2.9-.4 1.2-.7l12.3 5.1c-.1.6 0 1.2.2 1.8.7 2 3 3 5 2.3 2-.7 3-3 2.3-5-.2-.6-.6-1.1-1-1.5l5.5-10.7c.5 0 1-.1 1.5-.3 2-.6 3.1-2.9 2.3-4.9z"/></svg>